<svg xmlns="http://www.w3.org/2000/svg" width="1440" height="205" fill="none"><g clip-path="url(#a)"><path fill="#fff" d="M0 0h1440v205H0z"/><path fill="#fff" d="M0-55.937h1440v300H0z"/><path fill="#D2DCDC" d="M0 109.063h1139v135H0z"/><mask id="b" width="563" height="558" x="757" y="-51" maskUnits="userSpaceOnUse" style="mask-type:alpha"><path fill="#D2DCDC" d="M1038.85 506.304c155.18 0 280.99-124.587 280.99-278.273S1194.03-50.243 1038.85-50.243c-155.187 0-280.99 124.588-280.99 278.274s125.803 278.273 280.99 278.273"/></mask><g mask="url(#b)"><path fill="#D2DCDC" d="M1319.84-50.243H757.191v559.86h562.649z"/><path fill="#00DA72" d="M878.284 108.108h-123.1v119.26h123.1z"/><path fill="#FF92B7" d="M1319.84 32.577h-80.29v198.766h80.29z"/><path fill="#00DA72" d="M1239.55-50.243h-200.7v556.547h200.7z"/><path fill="#4042EE" d="M955.832 1.821c-5.569-.645-8.386-.999-14.146-1.834a717 717 0 0 0-7.485-9.542c6.1.368 9.117.52 15.121.793 2.851 4.498 4.12 6.58 6.51 10.583M966.645 20.582c-4.849-1.55-7.336-2.388-12.568-4.318-2.368-3.123-3.521-4.657-5.961-7.872 5.483 1.366 8.128 1.955 13.324 3.038 2.129 3.717 3.137 5.513 5.205 9.152M948.116 8.392c-5.483-1.367-8.3-2.126-14.185-3.89a1283 1283 0 0 1-6.966-6.917c6.029 1.1 8.96 1.568 14.72 2.403a949 949 0 0 1 6.431 8.404M974.189 13.899c-5.023-.912-7.554-1.387-12.749-2.47a514 514 0 0 0-5.608-9.608c5.569.645 8.309.924 13.764 1.455 1.96 4.383 2.851 6.479 4.593 10.623"/><path fill="#4042EE" d="M983.168 4.542c-5.416-.494-8.118-.734-13.573-1.265-1.96-4.383-3.001-6.641-5.345-11.436 5.946.216 8.906.311 14.833.508 1.799 5.053 2.594 7.469 4.085 12.193M989.866 27.323c-4.542-1.247-6.8-1.858-11.419-3.18-1.692-4.08-2.516-6.1-4.258-10.244 5.023.912 7.496 1.33 12.462 2.185 1.318 4.533 1.938 6.758 3.215 11.24M1010.5 7.262c-5.56-.645-8.3-.923-13.759-1.455-1.023-5.065-1.571-7.638-2.825-12.95 5.946.216 8.924.33 14.924.603.75 5.609 1.07 8.358 1.66 13.802M1013.09 34.065c-4.85-1.55-7.18-2.237-11.8-3.56-.87-4.884-1.28-7.313-2.176-12.235 5.026.912 7.556 1.387 12.746 2.469.51 5.349.74 8.003 1.23 13.326"/><path fill="#4042EE" d="M999.114 18.27c-5.023-.913-7.497-1.33-12.462-2.186-1.318-4.533-1.992-6.818-3.484-11.542 5.416.493 8.118.733 13.572 1.265 1.023 5.065 1.481 7.54 2.374 12.462M1025.19 23.777c-5.49-1.367-8.13-1.956-13.33-3.038-.5-5.35-.76-8.033-1.36-13.477 5.57.645 8.39.999 14.15 1.834.24 5.899.34 8.83.54 14.68M1038.85 11.375c-6.03-1.1-8.44-1.445-14.2-2.28-.24-5.899-.37-8.862-.69-14.844 6.1.368 8.66.723 14.89 1.223v15.901000000000002M1038.85 43.84c-5.77-2.46-7.96-3.528-13.19-5.458-.19-5.838-.28-8.753-.47-14.605 5.48 1.367 7.77 1.735 13.66 3.5V43.84M960.152 24.212c-4.973-2.488-7.587-3.858-13.23-7.009-2.739-2.667-4.007-3.9-6.561-6.394 5.767 2.46 8.485 3.526 13.716 5.455a889 889 0 0 0 6.075 7.948M977.849 39.601c-4.101-2.438-6.247-3.752-10.923-6.76a588 588 0 0 1-6.774-8.63c4.974 2.489 7.301 3.574 11.796 5.588a373 373 0 0 0 5.901 9.802M993.451 63.039l-8.547-8.464a830 830 0 0 1-9.922-11.814 487 487 0 0 0 9.868 7.747c3.087 4.653 4.774 7.124 8.601 12.53"/><path fill="#4042EE" d="M982.787 34.44c-4.208-1.73-6.344-2.627-10.839-4.64-2.208-3.77-3.235-5.579-5.303-9.218 4.848 1.55 7.183 2.237 11.802 3.56 1.692 4.08 2.532 6.11 4.34 10.297M974.983 42.76c-4.305-3.452-6.636-5.355-11.878-9.736a3055 3055 0 0 0-8.824-8.647c5.48 3.803 7.97 5.458 12.646 8.465a620 620 0 0 0 8.056 9.919M993.379 56.929a498 498 0 0 1-8.529-6.42c-3.087-4.654-4.453-6.8-7-10.907 4.101 2.438 6.018 3.524 9.775 5.622 2.091 4.469 3.214 6.78 5.754 11.705M996.826 50.277c-3.642-1.983-5.444-2.956-9.201-5.053-2.091-4.47-3.031-6.597-4.838-10.784 4.208 1.73 6.248 2.53 10.36 4.166 1.37 4.567 2.083 6.878 3.679 11.671M1006.72 76.177c-2.45-2.426-3.65-3.613-6.25-6.19-3.161-5.552-4.55-8.135-7.091-13.059 3.233 2.392 4.76 3.499 7.861 5.758 1.95 5.156 3.03 7.831 5.48 13.49"/><path fill="#4042EE" d="M1003.51 42.772c-4.211-1.73-6.252-2.531-10.364-4.166-1.369-4.568-2.003-6.801-3.28-11.282 4.542 1.247 6.801 1.858 11.424 3.18.86 4.884 1.28 7.32 2.22 12.268M1015.8 60.953c-4.1-2.438-6.02-3.525-9.77-5.622-1.1-5.117-1.59-7.612-2.52-12.56 4.2 1.73 6.34 2.627 10.84 4.64.53 5.367.81 8.063 1.45 13.542M1019.98 89.315l-7.01-6.948c-1.74-5.767-2.5-8.534-3.87-13.924a532 532 0 0 1 8.53 6.42c.82 5.661 1.28 8.54 2.35 14.452M1025.47 53.116c-4.97-2.487-6.63-3.69-11.12-5.705-.54-5.366-.78-8.024-1.26-13.346 4.85 1.55 7.33 2.388 12.57 4.318z"/><path fill="#4042EE" d="M1009.1 68.442c-3.24-2.39-4.76-3.498-7.86-5.757-1.957-5.157-2.817-7.615-4.413-12.408 3.643 1.983 5.443 2.956 9.203 5.054 1.1 5.116 1.7 7.721 3.07 13.111M1027.47 82.269c-4.3-3.453-6.21-4.616-9.84-7.406-.83-5.66-1.18-8.431-1.83-13.91 4.1 2.439 6.25 3.752 10.93 6.76.26 5.916.39 8.548.74 14.556"/><path fill="#4042EE" d="M1038.85 76.306c-5.48-3.803-8.12-5.47-12.8-8.476-.26-5.917-.37-8.853-.58-14.714 4.97 2.488 7.74 3.806 13.38 6.957zM1038.85 108.108c-4.69-4.838-6.72-6.93-10.38-10.71-.46-6.117-.65-9.137-.99-15.13 4.12 3.444 6.35 5.57 11.37 9.939zM1067.95 7.456c-5.52.606-8.68.473-14.38 1.27.25-5.906.66-8.245 1-14.246 6.06-.34 9.17-.642 15.13-.889-.8 5.647-1.14 8.407-1.75 13.865M1065.39 34.236c-4.79 1.516-7.98 2.409-13.16 4.304l1-14.576c5.42-1.327 8.21-1.981 13.34-3.024-.49 5.344-.72 7.99-1.18 13.296M1053.23 23.964c-5.42 1.326-8.56 1.588-14.38 3.313v-16.17c5.97-1.061 9.02-1.586 14.72-2.382-.25 5.906-.15 9.39-.34 15.239M1079.17 18.572c-4.96.872-7.46 1.327-12.6 2.369.5-5.344.76-8.028 1.38-13.485 5.51-.607 8.22-.866 13.61-1.358-1.05 5.084-1.51 7.56-2.39 12.474M1094.99 4.929c-5.36.455-8.03.676-13.43 1.168 1.05-5.084 1.63-7.674 2.97-13.043 5.9-.19 8.98-.722 14.87-.893-1.92 5.129-2.88 8.018-4.41 12.768M1088.35 27.668c-4.49 1.213-6.72 1.806-11.29 3.095.83-4.858 1.23-7.277 2.11-12.19 4.96-.873 7.4-1.27 12.31-2.085-1.3 4.522-1.9 6.733-3.13 11.18M1122.03 2.403c-5.51.606-8.22.865-13.62 1.358 2.01-4.416 3.1-6.702 5.58-11.59 5.91-.19 8.87-.291 14.83-.538-3.02 4.611-4.34 6.727-6.79 10.77M1111.31 21.1c-4.79 1.515-7.1 2.185-11.67 3.473 1.63-4.036 2.43-6.038 4.15-10.17 4.96-.87 7.46-1.326 12.59-2.368-2.1 3.701-3.08 5.476-5.07 9.064"/><path fill="#4042EE" d="M1103.79 14.404c-4.96.871-7.41 1.27-12.31 2.084 1.3-4.522 1.98-6.809 3.51-11.559 5.35-.455 8.03-.676 13.42-1.168-2.01 4.415-2.9 6.512-4.62 10.643M1129.56 9.098c-5.43 1.326-8.04 1.895-13.17 2.937 2.1-3.701 3.19-5.59 5.64-9.632 5.51-.607 8.3-.942 14-1.737a501 501 0 0 0-6.47 8.432M1150.6-1.64c-5.97 1.061-8.87 1.51-14.57 2.306 2.81-3.594 4.33-5.502 7.81-9.759 6.06-.341 9.12-.537 15.31-1.01z"/><path fill="#4042EE" d="M1137.34 11.498c-5.72 2.425-8.41 3.474-13.59 5.368 2.28-3.063 3.39-4.572 5.81-7.769 5.42-1.326 8.2-2.065 14.03-3.79zM1051.99 53.062c-4.94 2.464-7.54 3.822-13.14 6.948V43.84c5.71-2.425 8.2-3.405 13.38-5.3zM1062.84 61.018c-4.08 2.425-6.29 3.68-10.95 6.674 0 0-.1-14.485.08-14.576 4.93-2.463 7.79-3.594 12.24-5.584a568 568 0 0 1-1.37 13.486M1058.76 89.315l-8.55 8.463c.48-6.133.68-9.158 1.02-15.159 4.3-3.448 6.23-4.952 9.86-7.737-.8 5.647-1.26 8.52-2.33 14.433M1074.96 42.953c-4.17 1.705-6.29 2.59-10.75 4.58.5-5.344.72-7.99 1.18-13.297 4.8-1.515 7.11-2.185 11.68-3.473-.83 4.857-1.23 7.276-2.11 12.19"/><path fill="#4042EE" d="M1051.23 82.6c-4.57 3.437-6.82 5.245-12.38 9.607V76.095c5.8-3.777 8.1-5.42 13.04-8.403-.26 5.885-.3 8.929-.66 14.908M1069.6 68.471a532 532 0 0 0-8.51 6.41c.8-5.646 1.14-8.406 1.75-13.864 4.08-2.425 5.99-3.505 9.73-5.59-1.05 5.085-1.63 7.675-2.97 13.044M1081.72 50.407c-3.62 1.97-5.41 2.937-9.15 5.021 1.05-5.085 1.51-7.56 2.39-12.475 4.17-1.705 6.19-2.495 10.27-4.105-1.3 4.522-1.98 6.809-3.51 11.559M1072.03 76.177l-6.25 6.19c1.74-5.767 2.48-8.527 3.82-13.896 3.23-2.388 4.75-3.493 7.85-5.748-1.92 5.129-2.97 7.794-5.42 13.454M1095.5 34.742c-4.17 1.705-6.2 2.495-10.27 4.105 1.3-4.522 1.9-6.733 3.12-11.18 4.49-1.212 6.73-1.806 11.29-3.094-1.62 4.036-2.42 6.038-4.14 10.169M1100.6 39.795c-4.08 2.425-5.99 3.505-9.73 5.59 2.01-4.415 2.91-6.512 4.63-10.643 4.17-1.706 6.29-2.59 10.74-4.58-2.1 3.702-3.19 5.59-5.64 9.633M1085.29 63.039l-7.01 6.948c3.15-5.552 4.53-8.123 7.01-13.012 3.23-2.388 4.89-3.625 8.52-6.411-3.03 4.61-4.69 7.068-8.52 12.475M1117.95 24.636c-4.94 2.463-7.25 3.537-11.71 5.527 2.11-3.702 3.08-5.477 5.07-9.064 4.8-1.516 7.26-2.337 12.44-4.232-2.28 3.063-3.39 4.573-5.8 7.769"/><path fill="#4042EE" d="M1085.29 56.975c-3.23 2.388-4.75 3.493-7.84 5.748 1.91-5.129 2.74-7.567 4.27-12.317 3.62-1.97 5.42-2.937 9.15-5.021-2.01 4.415-3.09 6.701-5.58 11.59M1103.66 42.827c-4.3 3.448-6.22 4.952-9.85 7.737 3.02-4.61 4.34-6.727 6.79-10.77 4.08-2.425 6.22-3.732 10.87-6.726a478 478 0 0 1-7.81 9.759M1124.07 24.636c-5.46 3.79-7.94 5.438-12.6 8.432 2.82-3.594 4.07-5.236 6.48-8.432 4.93-2.463 7.53-3.821 13.14-6.948-2.61 2.577-3.96 3.916-7.02 6.948M1104.68 43.837c-4.9 4.851-7.01 6.948-10.84 10.738 4.42-5.186 6.34-7.491 9.82-11.748 4.3-3.45 6.63-5.35 11.86-9.727-3.82 3.79-5.94 5.886-10.84 10.737"/></g><mask id="c" width="563" height="240" x="757" y="108" maskUnits="userSpaceOnUse" style="mask-type:alpha"><path fill="#D2DCDC" d="M1319.84 228.035c0-65.866-125.81-119.261-280.99-119.262-155.187-.001-280.99 53.392-280.99 119.258s125.803 119.261 280.99 119.262c155.18.001 280.99-53.393 280.99-119.258"/></mask><g mask="url(#c)"><path fill="#D2DCDC" d="M1317.83 348.62V108.112l-561.977-.004v240.508z"/><path fill="#FF92B7" d="M878.286 326.089V129.31H757.862v196.779z"/><path fill="#4042EE" d="M1320.17 311.748V143.887l-80.62-.001v167.861z"/><path fill="#E2F700" d="m1198.74 453.83-.01-52.861c.01-7.324-5.97-13.235-13.31-13.25h-13.3c-7.34-.015-13.32-6.589-13.3-13.913v-53.001c.01-7.324-5.63-13.235-12.97-13.25h-13.41c-7.34-.015-13.55-5.926-13.53-13.25v-53.001c.01-7.324-5.3-13.236-12.64-13.25h-13.3c-7.34-.015-13.32-6.212-13.31-13.536v-53.047c.02-7.324-5.98-12.842-13.32-12.857l-13.3-.026c-7.34-.015-14.21-6.653-14.19-13.977V82.269c.01-7.324 7.01-13.266 14.35-13.251l172.79.346c7.34.015 13.58 5.923 13.56 13.247v370.995c-.01 7.325-7.02 13.622-14.36 13.608l-13.29-.027c-7.34-.015-13.17-6.033-13.16-13.357"/></g><path fill="#87A0AF" d="M1226.55 80.523c1.61.892 3.65.32 4.55-1.276a3.29 3.29 0 0 0-1.29-4.507c-1.61-.893-3.65-.321-4.55 1.276a3.3 3.3 0 0 0 1.29 4.507M1229.81 88.653c-1.61-.892-3.65-.32-4.55 1.276a3.3 3.3 0 0 0 1.29 4.507c1.61.892 3.65.321 4.55-1.276a3.29 3.29 0 0 0-1.29-4.507M1229.81 102.567c-1.61-.892-3.65-.321-4.55 1.276a3.3 3.3 0 0 0 1.29 4.507c1.61.892 3.65.321 4.55-1.276a3.29 3.29 0 0 0-1.29-4.507M1229.81 116.481c-1.61-.892-3.65-.321-4.55 1.276a3.3 3.3 0 0 0 1.29 4.507c1.61.892 3.65.321 4.55-1.276a3.29 3.29 0 0 0-1.29-4.507M1229.81 130.394c-1.61-.892-3.65-.32-4.55 1.276a3.3 3.3 0 0 0 1.29 4.507c1.61.893 3.65.321 4.55-1.276a3.29 3.29 0 0 0-1.29-4.507M1229.81 144.308c-1.61-.892-3.65-.321-4.55 1.276a3.3 3.3 0 0 0 1.29 4.507c1.61.892 3.65.321 4.55-1.276a3.29 3.29 0 0 0-1.29-4.507M1229.81 158.222c-1.61-.893-3.65-.321-4.55 1.276a3.3 3.3 0 0 0 1.29 4.507c1.61.892 3.65.32 4.55-1.276a3.29 3.29 0 0 0-1.29-4.507M1229.81 172.136c-1.61-.893-3.65-.321-4.55 1.276a3.3 3.3 0 0 0 1.29 4.507c1.61.892 3.65.321 4.55-1.276a3.29 3.29 0 0 0-1.29-4.507M1229.81 186.049c-1.61-.892-3.65-.321-4.55 1.276a3.3 3.3 0 0 0 1.29 4.507c1.61.892 3.65.321 4.55-1.276a3.29 3.29 0 0 0-1.29-4.507"/><path stroke="#87A0AF" stroke-miterlimit="10" stroke-width="2" d="M1093.39 150.897c63.49 44.029 114.72 92.667 146.22 135.682 15.75 21.511 26.54 41.57 31.49 58.907 4.95 17.347 4.01 31.812-3.43 42.332s-20.84 16.339-38.99 17.666c-18.15 1.326-40.87-1.852-66.67-9.156-51.59-14.605-115.26-45.642-178.753-89.672-63.494-44.029-114.72-92.667-146.223-135.681-15.754-21.512-26.542-41.571-31.488-58.908-4.95-17.347-4.013-31.812 3.425-42.332s20.842-16.338 38.995-17.666c18.143-1.326 40.865 1.852 66.665 9.156 51.589 14.605 115.259 45.642 178.759 89.672Z"/><mask id="d" width="563" height="558" x="117" y="-49" maskUnits="userSpaceOnUse" style="mask-type:alpha"><path fill="#D2DCDC" d="M398.664 508.145c155.186 0 280.989-124.587 280.989-278.273S553.85-48.402 398.664-48.402 117.676 76.185 117.676 229.872c0 153.686 125.803 278.273 280.988 278.273"/></mask><g mask="url(#d)"><path fill="#D2DCDC" d="M398.664 508.807c155.555 0 281.658-124.884 281.658-278.936S554.219-49.065 398.664-49.065 117.007 75.82 117.007 229.871s126.102 278.936 281.657 278.936"/><path fill="#FF92B7" d="m198.015 296.295-.045-53.004c-.007-7.319 5.979-13.256 13.369-13.263l53.521-.044c7.39-.007 13.376-5.944 13.369-13.263l-.045-53.004c-.006-7.318 5.979-13.256 13.369-13.262l53.522-.045c7.39-.006 13.375-5.944 13.369-13.262l-.045-53.005c-.007-7.318 5.979-13.256 13.369-13.262l53.521-.045c7.39-.006 13.376-5.944 13.369-13.262l-.045-53.005c-.006-7.318 5.98-13.256 13.369-13.262l53.522-.045c7.39-.006 13.375-5.944 13.369-13.262l-.045-53.005c-.006-7.318-6.002-13.246-13.392-13.24l-374.651.314c-7.39.006-13.375 5.944-13.369 13.262l.316 371.031c.007 7.319 6.002 13.247 13.392 13.24l53.522-.044c7.389-.007 13.375-5.944 13.369-13.263"/><path fill="#00DA72" d="M318.382 145.727v351.817H115.669V145.727z"/><path fill="#FF92B7" d="M679.653 1.29v348.504H559.229V1.29z"/><path fill="#FF5B17" d="M672.962 102.663V91.4h-11.373v11.263zM684.336 91.4V80.136h-11.373V91.4zM684.336 113.927v-11.264h-11.373v11.264zM672.962 125.19v-11.264h-11.373v11.264zM672.962 147.717v-11.263h-11.373v11.263zM684.336 136.453V125.19h-11.373v11.263zM684.336 158.98v-11.263h-11.373v11.263zM661.589 91.4V80.136h-11.373V91.4zM650.216 102.663V91.4h-11.374v11.263zM627.469 102.663V91.4h-11.373v11.263z"/><path fill="#FF5B17" d="M661.589 113.927v-11.264h-11.373v11.264zM638.842 91.4V80.136h-11.373V91.4zM638.842 113.927v-11.264h-11.373v11.264zM650.216 125.19v-11.264h-11.374v11.264z"/><path fill="#FF5B17" d="M627.469 125.19v-11.264h-11.373v11.264zM661.589 136.453V125.19h-11.373v11.263zM650.216 147.717v-11.263h-11.374v11.263zM627.469 147.717v-11.263h-11.373v11.263zM661.589 158.98v-11.263h-11.373v11.263zM638.842 136.453V125.19h-11.373v11.263z"/><path fill="#FF5B17" d="M638.842 158.98v-11.263h-11.373v11.263zM616.096 158.98v-11.263h-11.373v11.263zM593.349 158.98v-11.263h-11.373v11.263zM616.096 91.4V80.136h-11.373V91.4zM604.722 102.663V91.4h-11.373v11.263zM616.096 113.927v-11.264h-11.373v11.264zM593.349 91.4V80.136h-11.373V91.4zM593.349 113.927v-11.264h-11.373v11.264z"/><path fill="#FF5B17" d="M604.722 125.19v-11.264h-11.373v11.264zM616.096 136.453V125.19h-11.373v11.263zM604.722 147.717v-11.263h-11.373v11.263zM593.349 136.453V125.19h-11.373v11.263zM616.096 46.346V35.083h-11.373v11.263zM616.096 68.873V57.609h-11.373v11.264zM627.469 35.082V23.82h-11.373v11.263zM638.842 23.819V12.555h-11.373V23.82zM638.842 46.346V35.083h-11.373v11.263z"/><path fill="#FF5B17" d="M627.469 57.61V46.345h-11.373v11.263zM627.469 80.136V68.873h-11.373v11.263z"/><path fill="#FF5B17" d="M638.842 68.873V57.609h-11.373v11.264zM684.336 23.819V12.555h-11.373V23.82zM684.336 46.346V35.083h-11.373v11.263zM684.336 68.873V57.609h-11.373v11.264zM672.962 80.136V68.873h-11.373v11.263zM650.216 80.136V68.873h-11.374v11.263zM672.962 12.555V1.292h-11.373v11.263zM661.589 23.819V12.555h-11.373V23.82zM672.962 35.082V23.82h-11.373v11.263zM650.216 12.555V1.292h-11.374v11.263zM650.216 35.082V23.82h-11.374v11.263zM661.589 46.346V35.083h-11.373v11.263z"/><path fill="#FF5B17" d="M672.962 57.61V46.345h-11.373v11.263zM661.589 68.873V57.609h-11.373v11.264zM650.216 57.61V46.345h-11.374v11.263zM616.096 23.819V12.555h-11.373V23.82zM604.722 35.082V23.82h-11.373v11.263zM593.349 23.819V12.555h-11.373V23.82zM593.349 46.346V35.083h-11.373v11.263z"/><path fill="#FF5B17" d="M604.722 57.61V46.345h-11.373v11.263zM604.722 80.136V68.873h-11.373v11.263z"/><path fill="#FF5B17" d="M593.349 68.873V57.609h-11.373v11.264zM604.722 12.555V1.292h-11.373v11.263zM627.469 12.555V1.292h-11.373v11.263zM570.602 91.4V80.136h-11.373V91.4zM570.602 113.927v-11.264h-11.373v11.264zM570.602 136.453V125.19h-11.373v11.263zM570.602 158.98v-11.263h-11.373v11.263zM581.976 147.717v-11.263h-11.374v11.263zM581.976 125.19v-11.264h-11.374v11.264zM581.976 102.663V91.4h-11.374v11.263zM581.976 12.555V1.292h-11.374v11.263zM570.602 23.819V12.555h-11.373V23.82zM581.976 35.082V23.82h-11.374v11.263zM570.602 46.346V35.083h-11.373v11.263zM581.976 57.61V46.345h-11.374v11.263zM570.602 68.873V57.609h-11.373v11.264zM581.976 80.136V68.873h-11.374v11.263zM616.096 204.034v-11.263h-11.373v11.263zM627.469 192.771v-11.264h-11.373v11.264z"/><path fill="#FF5B17" d="M638.842 181.507v-11.263h-11.373v11.263zM638.842 204.034v-11.263h-11.373v11.263zM627.469 215.298v-11.264h-11.373v11.264zM684.336 181.507v-11.263h-11.373v11.263zM684.336 204.034v-11.263h-11.373v11.263zM672.962 170.244V158.98h-11.373v11.264zM661.589 181.507v-11.263h-11.373v11.263z"/><path fill="#FF5B17" d="M672.962 192.771v-11.264h-11.373v11.264zM650.216 170.244V158.98h-11.374v11.264zM650.216 192.771v-11.264h-11.374v11.264zM661.589 204.034v-11.263h-11.373v11.263zM672.962 215.298v-11.264h-11.373v11.264zM650.216 215.298v-11.264h-11.374v11.264zM616.096 181.507v-11.263h-11.373v11.263zM604.722 192.771v-11.264h-11.373v11.264z"/><path fill="#FF5B17" d="M593.349 181.507v-11.263h-11.373v11.263zM593.349 204.034v-11.263h-11.373v11.263zM604.722 215.298v-11.264h-11.373v11.264zM604.722 170.244V158.98h-11.373v11.264zM627.469 170.244V158.98h-11.373v11.264zM581.976 170.244V158.98h-11.374v11.264zM570.602 181.507v-11.263h-11.373v11.263zM581.976 192.771v-11.264h-11.374v11.264zM570.602 204.034v-11.263h-11.373v11.263zM581.976 215.298v-11.264h-11.374v11.264z"/><path fill="#D2DCDC" d="M256.624 89.44 143.183 201.976l-25.507 28.132-3.093-281.097z"/></g><mask id="e" width="433" height="429" x="182" y="15" maskUnits="userSpaceOnUse" style="mask-type:alpha"><path fill="#D2DCDC" d="M597.23 426.519c46.999-46.545-3.802-172.319-113.466-280.924C374.099 36.99 247.098-13.32 200.099 33.225s3.802 172.319 113.466 280.924C423.23 422.754 550.231 473.064 597.23 426.519"/></mask><g mask="url(#e)"><path fill="#D2DCDC" d="M615.076 15.825H182.577l-.292 427.745h432.499z"/><path fill="#FF5B17" d="M214.812 185.971 354.221 47.909l-84.425-83.722-139.409 138.062z"/><path fill="#E2F700" d="m385.844 415.539 37.753-37.478a13.155 13.155 0 0 0-.015-18.723l-9.455-9.353a13.155 13.155 0 0 1-.016-18.723l37.754-37.477a13.155 13.155 0 0 0-.016-18.723l-9.454-9.354a13.154 13.154 0 0 1-.016-18.723l37.753-37.477a13.154 13.154 0 0 0-.016-18.723l-9.454-9.354a13.154 13.154 0 0 1-.016-18.723l37.754-37.477a13.156 13.156 0 0 0-.016-18.723l-9.455-9.354a13.156 13.156 0 0 1-.016-18.723l37.754-37.477c5.213-5.175 13.671-5.182 18.893-.016l122.907 121.596a13.155 13.155 0 0 1 .016 18.723L414.207 443.6c-5.213 5.174-13.671 5.181-18.893.015l-9.454-9.353a13.154 13.154 0 0 1-.016-18.723"/><mask id="f" width="208" height="206" x="212" y="145" maskUnits="userSpaceOnUse" style="mask-type:alpha"><path fill="#FF5B17" d="M315.641 350.329c57.236 0 103.634-45.95 103.634-102.632s-46.398-102.633-103.634-102.633-103.633 45.95-103.633 102.633 46.398 102.632 103.633 102.632"/></mask><g mask="url(#f)"><mask id="g" width="208" height="208" x="212" y="146" maskUnits="userSpaceOnUse" style="mask-type:alpha"><circle cx="315.706" cy="249.816" r="103.698" fill="#D9D9D9"/></mask><g mask="url(#g)"><circle cx="315.706" cy="249.816" r="104.367" fill="#4042EE"/><path fill="#00DA72" d="m211.339 250.242 2.772-.063a99.2 99.2 0 0 0 4.082 25.949l-2.664.762a102 102 0 0 1-4.19-26.648m17.667 49.989a101 101 0 0 0 16.569 20.377l-1.915 1.987a104 104 0 0 1-17.014-20.922l-.063-.102zm-4.945-101.989 2.435 1.312a100.4 100.4 0 0 0-9.54 24.51l-2.695-.646a103.2 103.2 0 0 1 9.8-25.176M267 336.091a102.7 102.7 0 0 0 24.746 9.457l-.654 2.668a105.4 105.4 0 0 1-25.418-9.715zm-5.702-176.549.763 1.147.662 1.208a101.8 101.8 0 0 0-20.601 16.435l-2.006-1.895a104.6 104.6 0 0 1 21.182-16.895m56.816 188.833c8.884-.201 17.7-1.558 26.204-4.034l.782 2.634a104.8 104.8 0 0 1-26.924 4.144zm-31.823-199.824a104.8 104.8 0 0 1 26.873-4.149l.064 2.745a102 102 0 0 0-26.202 4.052l-.391-1.317zM389.34 317.136l2.007 1.894c-6.259 6.507-13.396 12.205-21.273 16.972l-.067.04-1.317-2.419a101.8 101.8 0 0 0 20.65-16.487m-49.091-169.85a105.4 105.4 0 0 1 25.426 9.697l-1.325 2.412a102.6 102.6 0 0 0-24.752-9.44zm74.224 124.101 2.695.645a103.2 103.2 0 0 1-9.783 25.183l-2.435-1.312a100.4 100.4 0 0 0 9.523-24.516m-26.774-98.512a103.9 103.9 0 0 1 17.066 20.969l.031.051-2.389 1.394a101.1 101.1 0 0 0-16.621-20.427zm25.502 46.453-.002-.005 2.684-.694.002.005a102 102 0 0 1 4.187 26.572l-2.771.065a99.3 99.3 0 0 0-4.1-25.943"/><path fill="#00DA72" d="m222.219 274.841.045.153a96.4 96.4 0 0 0 10.193 22.894l-3.565 2.143a100.4 100.4 0 0 1-10.629-23.871l-.045-.153zm-5.222-50.878 4.052.98a95 95 0 0 0-2.747 25.025l-4.17.098a99.2 99.2 0 0 1 2.865-26.103m31.396 93.543a97.8 97.8 0 0 0 20.527 14.86l-2.003 3.623a102 102 0 0 1-21.403-15.495zm-6.169-139.22 3.02 2.849a97 97 0 0 0-14.995 20.336l-3.66-1.981a101 101 0 0 1 15.635-21.204m50.392 163.204a97.8 97.8 0 0 0 25.268 2.734l.096 4.129a102 102 0 0 1-26.356-2.851zm-5.588-190.231.103-.03 1.178 3.962-.103.03a98.2 98.2 0 0 0-23.162 10.121l-2.166-3.529a102.4 102.4 0 0 1 24.15-10.554m56.177 189.04a98.2 98.2 0 0 0 23.252-10.176l2.17 3.528a102.4 102.4 0 0 1-24.244 10.61l-.205.06-1.178-3.963zM313.323 147.17a102 102 0 0 1 26.359 2.822l-.988 4.013a97.7 97.7 0 0 0-25.27-2.706zm87.891 146.786 3.661 1.978a101 101 0 0 1-15.612 21.222l-3.022-2.847a96.9 96.9 0 0 0 14.973-20.353m-36.815-134.478a102 102 0 0 1 21.42 15.472l-2.877 2.992a97.7 97.7 0 0 0-20.543-14.839zm48.709 85.969 4.169-.102a99.1 99.1 0 0 1-2.836 26.107l-4.052-.976a95 95 0 0 0 2.719-25.029m-10.645-50.051a100.4 100.4 0 0 1 10.686 23.963l.015.052-4.016 1.115a96.3 96.3 0 0 0-10.248-22.983zM218.365 249.955l6.236-.135a89 89 0 0 0 3.632 23.271l-5.986 1.738a95 95 0 0 1-3.882-24.874m19.537 44.762a90.7 90.7 0 0 0 14.837 18.292l-4.313 4.463a96.8 96.8 0 0 1-15.842-19.526l-.068-.111zm-7.612-93.243 5.475 2.96a90.1 90.1 0 0 0-8.584 21.97l-6.06-1.462a96.2 96.2 0 0 1 9.169-23.468m41.64 125.44a92 92 0 0 0 22.181 8.508l-1.478 6.002a98.4 98.4 0 0 1-23.694-9.089zm-6.87-161.49 3.316 5.233-.085.051a91.3 91.3 0 0 0-18.494 14.716l-4.507-4.27a97.5 97.5 0 0 1 19.77-15.73m52.694 172.562a91.4 91.4 0 0 0 23.499-3.589l1.753 5.929a97.7 97.7 0 0 1-25.118 3.836zM288.34 155.213a97.8 97.8 0 0 1 25.116-3.853l.138 6.176a91.4 91.4 0 0 0-23.496 3.605zm93.318 154.838 4.511 4.266a97.4 97.4 0 0 1-19.78 15.757l-.148.09-3.119-5.352a91.2 91.2 0 0 0 18.536-14.761M338.713 154.08a98.3 98.3 0 0 1 23.701 9.073l-2.988 5.423a92 92 0 0 0-22.187-8.493zm65.534 114.975 6.061 1.458a96.3 96.3 0 0 1-9.153 23.475l-5.477-2.957a90.1 90.1 0 0 0 8.569-21.976m-21.309-91.054a97 97 0 0 1 15.899 19.587l.073.126-2.683 1.487-2.672 1.675-.083-.135a90.7 90.7 0 0 0-14.844-18.274zm13.252 21.222.036-.022zm6.971 23.146 5.985-1.742a95 95 0 0 1 3.9 24.871l-6.237.14a88.9 88.9 0 0 0-3.648-23.269M236.432 270.865a81.7 81.7 0 0 0 8.648 19.424l-7.11 4.275a89.8 89.8 0 0 1-9.505-21.333l-.052-.174zm-9.112-44.416 8.079 1.956a80.6 80.6 0 0 0-2.329 21.227l-8.315.194a88.8 88.8 0 0 1 2.565-23.377m31.277 80.481a83 83 0 0 0 17.418 12.609l-3.996 7.224a91.3 91.3 0 0 1-19.163-13.873zm-8.69-121.377 6.021 5.682a82.2 82.2 0 0 0-12.723 17.256l-7.297-3.953a90.5 90.5 0 0 1 13.999-18.985m46.212 141.727a83 83 0 0 0 21.433 2.318l.192 8.235a91.3 91.3 0 0 1-23.604-2.553zm-6.034-165.946.51 1.666 1.781 6.252a83.3 83.3 0 0 0-19.652 8.587l-4.32-7.038a91.8 91.8 0 0 1 21.681-9.467m48.951 164.934a83.3 83.3 0 0 0 19.728-8.633l4.328 7.034a91.7 91.7 0 0 1-21.708 9.501l-.179.052-2.348-7.902zm-25.465-168.579a91.3 91.3 0 0 1 23.607 2.528l-1.971 8.002a83 83 0 0 0-21.436-2.295zm74.679 129.263 7.301 3.944a90.5 90.5 0 0 1-13.978 19.001l-6.028-5.676a82.2 82.2 0 0 0 12.705-17.269m-28.943-118.241a91.2 91.2 0 0 1 19.178 13.853l-5.735 5.966a83 83 0 0 0-17.43-12.591zM398.34 245.8l8.314-.203a88.8 88.8 0 0 1-2.539 23.38l-8.082-1.947a80.6 80.6 0 0 0 2.307-21.23m-4.948-44.926a90 90 0 0 1 9.567 21.456l.014.044-7.992 2.281a81.7 81.7 0 0 0-8.694-19.499z"/><path fill="#00DA72" d="m232.972 249.623 10.394-.225a70.6 70.6 0 0 0 2.883 18.474l-9.977 2.896a80.8 80.8 0 0 1-3.3-21.145m20.956 35.423a72 72 0 0 0 11.781 14.526l-7.188 7.438a82.2 82.2 0 0 1-13.444-16.563l-.089-.145zm-10.822-76.624 9.126 4.934a71.5 71.5 0 0 0-6.817 17.448l-10.101-2.438a81.8 81.8 0 0 1 7.792-19.944m37.838 102.188a73.2 73.2 0 0 0 17.615 6.756l-2.464 10.003a83.6 83.6 0 0 1-20.136-7.725zm-8.298-132.824.164-.094 2.497 4.318-2.658-4.224 5.498 8.738-.169.102a72.5 72.5 0 0 0-14.607 11.638l-7.513-7.116a82.9 82.9 0 0 1 16.788-13.362m44.689 141.616a72.6 72.6 0 0 0 18.655-2.848l2.921 9.882a83 83 0 0 1-21.353 3.26zm-24.889-150.301a83 83 0 0 1 21.35-3.275l.23 10.293a72.6 72.6 0 0 0-18.653 2.862zm75.63 128.119 7.518 7.112a82.7 82.7 0 0 1-16.784 13.375l-.15.091-5.305-8.856a72.5 72.5 0 0 0 14.721-11.722m-32.815-129.083a83.6 83.6 0 0 1 20.142 7.711l-4.979 9.038a73.1 73.1 0 0 0-17.62-6.744zm50.748 96.531 10.102 2.43a81.8 81.8 0 0 1-7.778 19.95l-9.128-4.927a71.6 71.6 0 0 0 6.804-17.453m-13.158-76.198a82.3 82.3 0 0 1 13.484 16.603l.015.023-4.412 2.722-4.453 2.656a72 72 0 0 0-11.818-14.56zm12.298 39.13 9.976-2.902a80.8 80.8 0 0 1 3.314 21.142l-10.393.232a70.6 70.6 0 0 0-2.897-18.472"/><path fill="#00DA72" d="m257.911 264.46.039.133a59.5 59.5 0 0 0 6.285 14.127l-10.668 6.407a71.9 71.9 0 0 1-7.585-17.045l-.04-.134zm-12.825-33.764 12.117 2.939a58.8 58.8 0 0 0-1.704 15.458l-12.472.285a71 71 0 0 1 2.059-18.682m28.987 60.148a60.4 60.4 0 0 0 12.684 9.195l-5.998 10.833a73 73 0 0 1-15.304-11.093zm-10.929-92.813 9.028 8.527a60 60 0 0 0-9.275 12.569l-10.943-5.933a72.2 72.2 0 0 1 11.19-15.163m38.259 107.657a60.4 60.4 0 0 0 15.609 1.698l.277 12.352a73 73 0 0 1-18.862-2.051zm-6.217-126.979.091-.027 3.432 11.879a60.7 60.7 0 0 0-14.301 6.246l-6.476-10.561a73.3 73.3 0 0 1 17.254-7.537m37.518 126.25a60.7 60.7 0 0 0 14.374-6.289l6.492 10.55a73.3 73.3 0 0 1-17.39 7.604l-.134.039-3.522-11.852zm-18.683-129.176a73 73 0 0 1 18.867 2.026l-2.96 12.003a60.4 60.4 0 0 0-15.609-1.677zm54.536 100.535 10.952 5.918a72.3 72.3 0 0 1-11.169 15.179l-9.04-8.515a59.9 59.9 0 0 0 9.257-12.582m-17.992-91.72a73 73 0 0 1 15.319 11.072l-8.604 8.947a60.5 60.5 0 0 0-12.699-9.178zm25.347 61.744 12.473-.302a71 71 0 0 1-2.033 18.685l-12.121-2.922a58.7 58.7 0 0 0 1.681-15.461m1.881-36.036a71.8 71.8 0 0 1 7.639 17.132l.013.045-11.982 3.443a59.6 59.6 0 0 0-6.328-14.199zM255.654 249.032l13.367-.273a45.6 45.6 0 0 0 1.843 11.916l-12.835 3.707a58.7 58.7 0 0 1-2.375-15.35m20.186 22.789a46.5 46.5 0 0 0 7.551 9.327l-9.259 9.551a59.7 59.7 0 0 1-9.701-11.975l-.106-.173zm-12.796-52.671 11.726 6.359a46.2 46.2 0 0 0-4.411 11.253l-12.986-3.148a59.3 59.3 0 0 1 5.671-14.464m30.16 69.131a47.1 47.1 0 0 0 11.36 4.378l-3.191 12.858a60.6 60.6 0 0 1-14.599-5.628zm-8.713-91.333 7.016 11.271-.097.059a46.8 46.8 0 0 0-9.445 7.506l-9.653-9.162a60.2 60.2 0 0 1 12.179-9.674m32.186 97.046c4.078-.08 8.127-.69 12.034-1.815l3.731 12.715a60.3 60.3 0 0 1-15.501 2.338zm-17.804-103.341a60.3 60.3 0 0 1 15.498-2.364l.286 13.238a46.8 46.8 0 0 0-12.031 1.835zm41.129 96.589a46.8 46.8 0 0 0 9.499-7.562l9.668 9.144a60 60 0 0 1-12.188 9.711l-.197.119-6.909-11.335zm-10.06-97.264a60.7 60.7 0 0 1 14.609 5.604l-6.411 11.619a47.2 47.2 0 0 0-11.367-4.36zm31.13 68.705 12.992 3.126a59.3 59.3 0 0 1-5.646 14.473l-11.738-6.339a46.2 46.2 0 0 0 4.392-11.26m-3.864-53.932a59.7 59.7 0 0 1 9.782 12.057l.109.182-5.706 3.246-5.768 3.545-.105-.17a46.4 46.4 0 0 0-7.554-9.293zm4.097 15.54.088-.055zm-.778 14.479 12.829-3.729a58.7 58.7 0 0 1 2.4 15.347l-13.366.294a45.6 45.6 0 0 0-1.863-11.912"/></g></g></g><path stroke="#87A0AF" stroke-miterlimit="10" stroke-width="2" d="M470.962-38.143c9.848 2.613 17.516 12.33 22.774 28.217 5.242 15.843 7.989 37.552 8.191 63.623.404 52.127-9.368 121.459-29.434 195.622-20.065 74.163-46.607 139.044-73.274 183.988-13.338 22.479-26.678 39.919-39.216 51.043-12.575 11.156-24.121 15.773-33.969 13.16-9.848-2.614-17.517-12.33-22.774-28.218-5.242-15.842-7.989-37.551-8.191-63.622-.404-52.128 9.368-121.459 29.433-195.622 20.066-74.163 46.607-139.045 73.275-183.989 13.338-22.478 26.678-39.918 39.216-51.042 12.574-11.156 24.121-15.773 33.969-13.16Z"/><path stroke="#87A0AF" stroke-miterlimit="10" stroke-width="2" d="M140.423 227.241c0 141.966 116.218 257.053 259.58 257.053s259.58-115.087 259.58-257.053c0-141.967-116.151-257.09-259.513-257.09"/><path fill="#FF2C00" d="M990 205.42c16.57 0 30-13.301 30-29.71S1006.57 146 990 146c-16.569 0-30 13.302-30 29.71s13.431 29.71 30 29.71"/></g><defs><clipPath id="a"><path fill="#fff" d="M0 0h1440v205H0z"/></clipPath></defs></svg>